<svg viewBox="0 0 119 35" version="1.1" xmlns="http://www.w3.org/2000/svg" xmlns:xlink="http://www.w3.org/1999/xlink">
    <defs>
        <polygon id="path-1" points="0 0 118.435687 0 118.435687 35 0 35"></polygon>
    </defs>
    <g id="Symbols" stroke="none" stroke-width="1" fill="none" fill-rule="evenodd">
        <g id="mobile/header1" transform="translate(-155.000000, -16.000000)">
            <g id="LOGO" transform="translate(155.000000, 16.000000)">
                <mask id="mask-2" fill="white">
                    <use xlink:href="#path-1"></use>
                </mask>
                <g id="Clip-2"></g>
                <path d="M41.8191305,7.11027205 L39.6104221,7.11027205 L39.6104221,16.0706641 L41.4024305,16.0706641 C43.1112389,16.0706641 44.1530473,15.3204641 44.1530473,12.986664 L44.1530473,10.1109555 C44.1530473,8.02710542 43.4446223,7.11027205 41.8191305,7.11027205" id="Fill-1" fill="#0F1F29" mask="url(#mask-2)"></path>
                <path d="M108.752751,32.4493899 C104.251667,32.4493899 101.917984,29.7820898 101.917984,25.1144896 L101.917984,23.3222478 L106.2522,23.3222478 L106.2522,25.4062146 C106.2522,27.489948 107.169034,28.240148 108.627659,28.240148 C110.086284,28.240148 111.003234,27.489948 111.003234,25.4062146 C111.003234,19.4047309 102.042842,18.2794892 102.042842,9.9443222 C102.042842,5.27648863 104.334984,2.6091885 108.794292,2.6091885 C113.253717,2.6091885 115.545976,5.27648863 115.545976,9.9443222 L115.545976,10.8611556 L111.211642,10.8611556 L111.211642,9.6524805 C111.211642,7.56874708 110.378126,6.77688871 108.919501,6.77688871 C107.460876,6.77688871 106.627242,7.56874708 106.627242,9.6524805 C106.627242,15.6539641 115.587518,16.7790892 115.587518,25.1144896 C115.587518,29.7820898 113.253717,32.4493899 108.752751,32.4493899 Z M101.69884,7.11027205 L96.9059145,7.11027205 L96.9059145,32.1160065 L92.3215143,32.1160065 L92.3215143,7.11027205 L87.5289391,7.11027205 L87.5289391,2.94268854 L101.69884,2.94268854 L101.69884,7.11027205 Z M91.5862506,32.1160065 L79.458425,32.1160065 L79.458425,2.94268854 L84.0427085,2.94268854 L84.0427085,27.9483063 L91.5862506,27.9483063 L91.5862506,32.1160065 Z M74.3171801,32.1160065 L67.4821798,32.1160065 L62.9812129,2.94268854 L67.6072715,2.94268854 L71.1080883,26.7397479 L74.6089051,2.94268854 L78.8182637,2.94268854 L74.3171801,32.1160065 Z M56.2560179,32.4493899 C51.7549343,32.4493899 49.4210175,29.7820898 49.4210175,25.1144896 L49.4210175,23.3222478 L53.7554678,23.3222478 L53.7554678,25.4062146 C53.7554678,27.489948 54.6723011,28.240148 56.1309262,28.240148 C57.5895512,28.240148 58.5065013,27.489948 58.5065013,25.4062146 C58.5065013,19.4047309 49.5461092,18.2794892 49.5461092,9.9443222 C49.5461092,5.27648863 51.838251,2.6091885 56.2976762,2.6091885 C60.7569847,2.6091885 63.0491265,5.27648863 63.0491265,9.9443222 L63.0491265,10.8611556 L58.7149096,10.8611556 L58.7149096,9.6524805 C58.7149096,7.56874708 57.8813929,6.77688871 56.4227679,6.77688871 C54.9639094,6.77688871 54.1303927,7.56874708 54.1303927,9.6524805 C54.1303927,15.6539641 63.0909015,16.7790892 63.0909015,25.1144896 C63.0909015,29.7820898 60.7569847,32.4493899 56.2560179,32.4493899 Z M44.611639,32.1160065 C44.3614556,31.3659232 44.1948223,30.9073315 44.1948223,28.531873 L44.1948223,23.9474728 C44.1948223,21.2385144 43.2778722,20.2382476 41.1940221,20.2382476 L39.6104221,20.2382476 L39.6104221,32.1160065 L35.0260219,32.1160065 L35.0260219,2.94268854 L41.9443389,2.94268854 C46.6953724,2.94268854 48.7374475,5.15139695 48.7374475,9.6524805 L48.7374475,11.9446223 C48.7374475,14.9454224 47.7789558,16.9041808 45.7368807,17.8626725 C48.0290225,18.8211642 48.7791058,21.030106 48.7791058,24.0725645 L48.7791058,28.5734147 C48.7791058,29.9904981 48.8208808,31.0323065 49.2792392,32.1160065 L44.611639,32.1160065 Z M0,35.0070014 L118.440355,35.0070014 L118.440355,0 L0,0 L0,35.0070014 Z" id="Fill-3" fill="#0F1F29" mask="url(#mask-2)"></path>
                <path d="M9.66169901,19.0522104 C13.3858605,19.0522104 16.4138494,16.0328566 16.4138494,12.3092785 C16.4138494,10.8327999 15.9448723,9.46752684 15.1395946,8.3576882 C15.3774088,7.12929253 16.3492032,6.20884177 17.5099187,6.20884177 C18.6765853,6.20884177 19.6528139,7.14119491 19.8823431,8.3811429 C19.0879176,9.48701407 18.6211576,10.8430686 18.6211576,12.3092785 C18.6211576,16.0328566 21.6599987,19.0522104 25.3836934,19.0522104 C27.389828,19.0522104 29.1664333,18.1752851 30.4459392,16.7856238 L30.4459392,30.1035707 C30.4459392,30.2598186 30.2788391,30.4265686 30.1225912,30.4265686 L4.92326799,30.4265686 C4.76702007,30.4265686 4.59991998,30.2598186 4.59991998,30.1035707 L4.59991998,16.7856238 C5.87954258,18.1752851 7.65568114,19.0522104 9.66169901,19.0522104 Z M9.67208442,7.448323 C12.356538,7.448323 14.5330399,9.62424151 14.5330399,12.3092785 C14.5330399,14.9937321 12.3564213,17.1707008 9.67208442,17.1707008 C6.98704741,17.1707008 4.8110122,14.9937321 4.8110122,12.3092785 C4.8110122,9.62424151 6.98704741,7.448323 9.67208442,7.448323 Z M25.3549877,7.448323 C28.039908,7.448323 30.2164099,9.62424151 30.2164099,12.3092785 C30.2164099,14.9937321 28.039908,17.1707008 25.3549877,17.1707008 C22.6705341,17.1707008 20.493332,14.9937321 20.493332,12.3092785 C20.493332,9.62424151 22.6705341,7.448323 25.3549877,7.448323 Z M30.6430286,7.03979129 C31.263236,7.65836501 31.7413149,8.37075748 32.1092385,9.15876509 L32.1092385,4.76281923 C32.1092385,3.7474995 31.2789891,2.91725012 30.2642529,2.91725012 L4.78172301,2.91725012 C3.76698673,2.91725012 2.93673735,3.7474995 2.93673735,4.76281923 L2.93673735,30.2452324 C2.93673735,31.2600854 3.76698673,32.0897513 4.78172301,32.0897513 L30.2642529,32.0897513 C31.2789891,32.0897513 32.1092385,31.2600854 32.1092385,30.2452324 L32.1092385,12.3071781 L32.1070214,12.3071781 C32.1059712,8.58406681 29.0877842,5.56646329 25.3647896,5.56646329 C23.4410382,5.56646329 21.7062079,6.37174101 20.4776955,7.66373275 C20.2123425,6.3988131 18.9854638,5.44323865 17.5115523,5.44323865 C16.0453424,5.44323865 14.8239481,6.38959459 14.5504268,7.64424552 C13.3229646,6.36415616 11.5756485,5.56646329 9.66169901,5.56646329 C7.65556445,5.56646329 5.87954258,6.44280523 4.59991998,7.83258318 L4.59991998,4.9044809 C4.59991998,4.74811629 4.76702007,4.58043275 4.92326799,4.58043275 L30.1225912,4.58043275 C30.2787224,4.58043275 30.4459392,4.74811629 30.4459392,4.9044809 L30.4459392,6.83126625 C30.4460559,6.8996466 30.5724312,6.96872708 30.6430286,7.03979129 L30.6430286,7.03979129 Z" id="Fill-5" fill="#DC3848" mask="url(#mask-2)"></path>
                <path d="M10.4268354,25.941705 C10.4268354,25.941705 10.6547309,25.908565 10.8864773,26.0029673 C11.1176402,26.0973695 11.6553477,26.2530339 12.1280589,26.2530339 C12.6012369,26.2530339 14.1596319,26.3860605 17.5088684,23.6902881 C20.8575215,26.3860605 22.4209342,26.2530339 22.8939955,26.2530339 C23.3671734,26.2530339 23.909782,26.0973695 24.1409449,26.0029673 C24.3732747,25.908565 24.60012,25.941705 24.60012,25.941705 C25.8866273,26.064813 28.1479629,30.3403347 28.1479629,30.3403347 C28.10012,29.8952791 26.6349603,21.8359672 24.4406048,21.3068947 C22.2461326,20.776772 17.5088684,22.1854538 17.5088684,22.1854538 C17.5088684,22.1854538 12.7765053,20.776772 10.5820331,21.3068947 C8.38756085,21.8360839 6.92520171,29.8952791 6.87805895,30.3403347 C6.87805895,30.3403347 9.14021138,26.064813 10.4268354,25.941705" id="Fill-6" fill="#DC3848" mask="url(#mask-2)"></path>
            </g>
        </g>
    </g>
</svg>